<?xml version="1.0" encoding="utf-8"?>
<!-- Generator: Adobe Illustrator 27.6.1, SVG Export Plug-In . SVG Version: 6.00 Build 0)  -->
<svg version="1.1" id="Layer_1" xmlns="http://www.w3.org/2000/svg" xmlns:xlink="http://www.w3.org/1999/xlink" x="0px" y="0px"
	 viewBox="0 0 587.7 673.5" style="enable-background:new 0 0 587.7 673.5;" xml:space="preserve">
<style type="text/css">
	.st0{fill:none;stroke:#262626;stroke-width:0.5;stroke-linecap:square;stroke-linejoin:round;stroke-miterlimit:10;}
	.st1{fill:#262626;}
	.st2{font-family:'Helvetica';}
	.st3{font-size:10px;}
	.st4{font-size:11px;}
	.st5{font-family:'HelveticaNeue-Bold';}
	.st6{fill:none;stroke:#000000;stroke-width:0.5;stroke-linejoin:bevel;stroke-miterlimit:1;stroke-dasharray:10,6;}
	.st7{fill:none;stroke:#000000;stroke-width:0.5;stroke-linejoin:round;stroke-miterlimit:10;}
	.st8{fill:none;stroke:#0000FF;stroke-width:0.5;stroke-linejoin:round;stroke-miterlimit:10;}
	.st9{fill:none;stroke:#FF0000;stroke-width:0.5;stroke-linejoin:round;stroke-miterlimit:10;}
	.st10{fill:#FFFFFF;}
	.st11{fill:none;stroke:#FF0000;stroke-width:0.5;stroke-miterlimit:10;}
</style>
<g>
	<g>
		<line class="st0" x1="35.4" y1="184.2" x2="273.4" y2="184.2"/>
		<line class="st0" x1="35.4" y1="15.2" x2="273.4" y2="15.2"/>
		<line class="st0" x1="94.9" y1="184.2" x2="94.9" y2="181.8"/>
		<line class="st0" x1="213.9" y1="184.2" x2="213.9" y2="181.8"/>
		<line class="st0" x1="94.9" y1="15.2" x2="94.9" y2="17.6"/>
		<line class="st0" x1="213.9" y1="15.2" x2="213.9" y2="17.6"/>
	</g>
	<g transform="translate(152.5,234)">
		<text transform="matrix(1 0 0 1 -77.0547 -35.8232)" class="st1 st2 st3">Agresivo</text>
	</g>
	<g transform="translate(271.5,234)">
		<text transform="matrix(1 0 0 1 -74.0547 -35.8232)" class="st1 st2 st3">Normal</text>
	</g>
	<g transform="translate(212.0001,248)">
		<text transform="matrix(1 0 0 1 -106.5547 -34.8232)" class="st1 st2 st4">Estilo de condución</text>
	</g>
	<g>
		<line class="st0" x1="35.4" y1="184.2" x2="35.4" y2="15.2"/>
		<line class="st0" x1="273.4" y1="184.2" x2="273.4" y2="15.2"/>
		<line class="st0" x1="35.4" y1="167" x2="37.8" y2="167"/>
		<line class="st0" x1="35.4" y1="132.8" x2="37.8" y2="132.8"/>
		<line class="st0" x1="35.4" y1="98.6" x2="37.8" y2="98.6"/>
		<line class="st0" x1="35.4" y1="64.3" x2="37.8" y2="64.3"/>
		<line class="st0" x1="35.4" y1="30.1" x2="37.8" y2="30.1"/>
		<line class="st0" x1="273.4" y1="167" x2="271.1" y2="167"/>
		<line class="st0" x1="273.4" y1="132.8" x2="271.1" y2="132.8"/>
		<line class="st0" x1="273.4" y1="98.6" x2="271.1" y2="98.6"/>
		<line class="st0" x1="273.4" y1="64.3" x2="271.1" y2="64.3"/>
		<line class="st0" x1="273.4" y1="30.1" x2="271.1" y2="30.1"/>
	</g>
	<g transform="translate(89,212.8554)">
		<text transform="matrix(1 0 0 1 -63.5547 -42.3232)" class="st1 st2 st3">2</text>
	</g>
	<g transform="translate(89,178.6202)">
		<text transform="matrix(1 0 0 1 -63.5547 -42.3233)" class="st1 st2 st3">3</text>
	</g>
	<g transform="translate(89,144.3851)">
		<text transform="matrix(1 0 0 1 -63.5547 -42.3232)" class="st1 st2 st3">4</text>
	</g>
	<g transform="translate(89,110.1499)">
		<text transform="matrix(1 0 0 1 -63.5547 -42.3232)" class="st1 st2 st3">5</text>
	</g>
	<g transform="translate(89,75.9147)">
		<text transform="matrix(1 0 0 1 -63.5547 -42.3233)" class="st1 st2 st3">6</text>
	</g>
	<g transform="translate(80,145.4999) rotate(-90)">
		<text transform="matrix(1 0 0 1 -5.6769 -60.5547)" class="st1 st2 st4">Flujo de combustible</text>
	</g>
	<g transform="translate(212.0002,58.25)">
		<text transform="matrix(1 0 0 1 -166.0547 -48.8232)" class="st5 st4">flujo de combustible, pvalue = 1.0999e-09</text>
	</g>
	<g>
		<line class="st6" x1="94.9" y1="75.2" x2="94.9" y2="22.9"/>
		<line class="st6" x1="213.9" y1="139.2" x2="213.9" y2="121.5"/>
		<line class="st6" x1="94.9" y1="142.5" x2="94.9" y2="119"/>
		<line class="st6" x1="213.9" y1="176.5" x2="213.9" y2="162.5"/>
		<line class="st7" x1="86" y1="22.9" x2="103.9" y2="22.9"/>
		<line class="st7" x1="205" y1="121.5" x2="222.9" y2="121.5"/>
		<line class="st7" x1="86" y1="142.5" x2="103.9" y2="142.5"/>
		<line class="st7" x1="205" y1="176.5" x2="222.9" y2="176.5"/>
	</g>
	<g>
		<path class="st8" d="M77.1,119V75.2h35.7V119H77.1"/>
		<path class="st8" d="M196.1,162.5v-23.4h35.7v23.4H196.1"/>
		<line class="st9" x1="77.1" y1="106.5" x2="112.8" y2="106.5"/>
		<line class="st9" x1="196.1" y1="146.6" x2="231.8" y2="146.6"/>
	</g>
	<g>
		<path class="st10" d="M358.4,166.2h228v-149h-228V166.2z"/>
	</g>
	<g>
		<line class="st0" x1="358.4" y1="166.2" x2="586.4" y2="166.2"/>
		<line class="st0" x1="358.4" y1="17.2" x2="586.4" y2="17.2"/>
		<line class="st0" x1="415.4" y1="166.2" x2="415.4" y2="163.9"/>
		<line class="st0" x1="529.4" y1="166.2" x2="529.4" y2="163.9"/>
		<line class="st0" x1="415.4" y1="17.2" x2="415.4" y2="19.5"/>
		<line class="st0" x1="529.4" y1="17.2" x2="529.4" y2="19.5"/>
	</g>
	<g transform="translate(473,216)">
		<text transform="matrix(1 0 0 1 -77.0547 -35.8232)" class="st1 st2 st3">Agresivo</text>
	</g>
	<g transform="translate(587,216)">
		<text transform="matrix(1 0 0 1 -74.0547 -35.8232)" class="st1 st2 st3">Normal</text>
	</g>
	<g transform="translate(530.0001,230)">
		<text transform="matrix(1 0 0 1 -106.5547 -34.8232)" class="st1 st2 st4">Estilo de condución</text>
	</g>
	<g>
		<line class="st0" x1="358.4" y1="166.2" x2="358.4" y2="17.2"/>
		<line class="st0" x1="586.4" y1="166.2" x2="586.4" y2="17.2"/>
		<line class="st0" x1="358.4" y1="125.7" x2="360.7" y2="125.7"/>
		<line class="st0" x1="358.4" y1="81.2" x2="360.7" y2="81.2"/>
		<line class="st0" x1="358.4" y1="36.6" x2="360.7" y2="36.6"/>
		<line class="st0" x1="586.4" y1="125.7" x2="584.2" y2="125.7"/>
		<line class="st0" x1="586.4" y1="81.2" x2="584.2" y2="81.2"/>
		<line class="st0" x1="586.4" y1="36.6" x2="584.2" y2="36.6"/>
	</g>
	<g transform="translate(412,171.4795)">
		<text transform="matrix(1 0 0 1 -80.5547 -42.3233)" class="st1 st2 st3">1500</text>
	</g>
	<g transform="translate(412,126.9756)">
		<text transform="matrix(1 0 0 1 -80.5547 -42.3233)" class="st1 st2 st3">2000</text>
	</g>
	<g transform="translate(412,82.4718)">
		<text transform="matrix(1 0 0 1 -80.5547 -42.3232)" class="st1 st2 st3">2500</text>
	</g>
	<g transform="translate(386,137.4999) rotate(-90)">
		<text transform="matrix(1 0 0 1 13.3231 -60.5547)" class="st1 st2 st4">RPMS media</text>
	</g>
	<g transform="translate(530.0005,60.25)">
		<text transform="matrix(1 0 0 1 -146.5547 -48.8232)" class="st5 st4">RPMS media, pvalue = 9.0275e-08</text>
	</g>
	<g>
		<line class="st6" x1="415.4" y1="74.2" x2="415.4" y2="40.9"/>
		<line class="st6" x1="529.4" y1="114.9" x2="529.4" y2="98.9"/>
		<line class="st6" x1="415.4" y1="124.9" x2="415.4" y2="103.6"/>
		<line class="st6" x1="529.4" y1="159.4" x2="529.4" y2="145.2"/>
		<line class="st7" x1="406.9" y1="40.9" x2="424" y2="40.9"/>
		<line class="st7" x1="520.9" y1="98.9" x2="538" y2="98.9"/>
		<line class="st7" x1="406.9" y1="124.9" x2="424" y2="124.9"/>
		<line class="st7" x1="520.9" y1="159.4" x2="538" y2="159.4"/>
	</g>
	<g>
		<path class="st8" d="M398.3,103.6V74.2h34.2v29.4H398.3"/>
		<path class="st8" d="M512.3,145.2v-30.3h34.2v30.3H512.3"/>
		<line class="st9" x1="398.3" y1="91.9" x2="432.5" y2="91.9"/>
		<line class="st9" x1="512.3" y1="122.4" x2="546.5" y2="122.4"/>
		<path class="st11" d="M415.4,20.9v6 M412.4,23.9h6"/>
	</g>
	<g>
		<path class="st10" d="M35.4,402.2h238v-141h-238V402.2z"/>
	</g>
	<g>
		<line class="st0" x1="35.4" y1="402.2" x2="273.4" y2="402.2"/>
		<line class="st0" x1="35.4" y1="261.2" x2="273.4" y2="261.2"/>
		<line class="st0" x1="94.9" y1="402.2" x2="94.9" y2="399.8"/>
		<line class="st0" x1="213.9" y1="402.2" x2="213.9" y2="399.8"/>
		<line class="st0" x1="94.9" y1="261.2" x2="94.9" y2="263.6"/>
		<line class="st0" x1="213.9" y1="261.2" x2="213.9" y2="263.6"/>
	</g>
	<g transform="translate(152.5,452)">
		<text transform="matrix(1 0 0 1 -77.0547 -35.8232)" class="st1 st2 st3">Agresivo</text>
	</g>
	<g transform="translate(271.5,452)">
		<text transform="matrix(1 0 0 1 -74.0547 -35.8232)" class="st1 st2 st3">Normal</text>
	</g>
	<g transform="translate(212.0001,467)">
		<text transform="matrix(1 0 0 1 -106.5547 -34.8232)" class="st1 st2 st4">Estilo de condución</text>
	</g>
	<g>
		<line class="st0" x1="35.4" y1="402.2" x2="35.4" y2="261.2"/>
		<line class="st0" x1="273.4" y1="402.2" x2="273.4" y2="261.2"/>
		<line class="st0" x1="35.4" y1="397.4" x2="37.8" y2="397.4"/>
		<line class="st0" x1="35.4" y1="373.6" x2="37.8" y2="373.6"/>
		<line class="st0" x1="35.4" y1="349.8" x2="37.8" y2="349.8"/>
		<line class="st0" x1="35.4" y1="325.9" x2="37.8" y2="325.9"/>
		<line class="st0" x1="35.4" y1="302.1" x2="37.8" y2="302.1"/>
		<line class="st0" x1="35.4" y1="278.3" x2="37.8" y2="278.3"/>
		<line class="st0" x1="273.4" y1="397.4" x2="271.1" y2="397.4"/>
		<line class="st0" x1="273.4" y1="373.6" x2="271.1" y2="373.6"/>
		<line class="st0" x1="273.4" y1="349.8" x2="271.1" y2="349.8"/>
		<line class="st0" x1="273.4" y1="325.9" x2="271.1" y2="325.9"/>
		<line class="st0" x1="273.4" y1="302.1" x2="271.1" y2="302.1"/>
		<line class="st0" x1="273.4" y1="278.3" x2="271.1" y2="278.3"/>
	</g>
	<g transform="translate(89,443.2255)">
		<text transform="matrix(1 0 0 1 -63.5547 -42.3233)" class="st1 st2 st3">0</text>
	</g>
	<g transform="translate(89,419.4051)">
		<text transform="matrix(1 0 0 1 -63.5547 -42.3232)" class="st1 st2 st3">2</text>
	</g>
	<g transform="translate(89,395.5847)">
		<text transform="matrix(1 0 0 1 -63.5547 -42.3232)" class="st1 st2 st3">4</text>
	</g>
	<g transform="translate(89,371.7644)">
		<text transform="matrix(1 0 0 1 -63.5547 -42.3232)" class="st1 st2 st3">6</text>
	</g>
	<g transform="translate(89,347.944)">
		<text transform="matrix(1 0 0 1 -63.5547 -42.3233)" class="st1 st2 st3">8</text>
	</g>
	<g transform="translate(89,324.1237)">
		<text transform="matrix(1 0 0 1 -69.5547 -42.3233)" class="st1 st2 st3">10</text>
	</g>
	<g transform="translate(74,377.4999) rotate(-90)">
		<text transform="matrix(1 0 0 1 34.8232 -60.5547)" class="st1 st2 st4">RPA</text>
	</g>
	<g transform="translate(212.0002,304.25)">
		<text transform="matrix(1 0 0 1 -118.5547 -48.8232)" class="st5 st4">RPA, pvalue = 0.044167</text>
	</g>
	<g>
		<line class="st6" x1="94.9" y1="336" x2="94.9" y2="316"/>
		<line class="st6" x1="213.9" y1="329.5" x2="213.9" y2="313.3"/>
		<line class="st6" x1="94.9" y1="366.9" x2="94.9" y2="362.1"/>
		<line class="st6" x1="213.9" y1="363.8" x2="213.9" y2="347.9"/>
		<line class="st7" x1="86" y1="316" x2="103.9" y2="316"/>
		<line class="st7" x1="205" y1="313.3" x2="222.9" y2="313.3"/>
		<line class="st7" x1="86" y1="366.9" x2="103.9" y2="366.9"/>
		<line class="st7" x1="205" y1="363.8" x2="222.9" y2="363.8"/>
	</g>
	<g>
		<path class="st8" d="M77.1,362.1V336h35.7v26.1H77.1"/>
		<path class="st8" d="M196.1,347.9v-18.5h35.7v18.5H196.1"/>
		<line class="st9" x1="77.1" y1="355.4" x2="112.8" y2="355.4"/>
		<line class="st9" x1="196.1" y1="340" x2="231.8" y2="340"/>
		<path class="st11" d="M213.9,392.8v6 M210.9,395.8h6"/>
		<path class="st11" d="M213.9,276.6v6 M210.9,279.6h6"/>
		<path class="st11" d="M213.9,269.7v6 M210.9,272.7h6"/>
		<path class="st11" d="M213.9,269v6 M210.9,272h6"/>
		<path class="st11" d="M213.9,264.6v6 M210.9,267.6h6"/>
	</g>
	<g>
		<path class="st10" d="M356.4,403.2h231v-133h-231V403.2z"/>
	</g>
	<g>
		<line class="st0" x1="356.4" y1="403.2" x2="587.4" y2="403.2"/>
		<line class="st0" x1="356.4" y1="270.2" x2="587.4" y2="270.2"/>
		<line class="st0" x1="414.2" y1="403.2" x2="414.2" y2="400.9"/>
		<line class="st0" x1="529.7" y1="403.2" x2="529.7" y2="400.9"/>
		<line class="st0" x1="414.2" y1="270.2" x2="414.2" y2="272.5"/>
		<line class="st0" x1="529.7" y1="270.2" x2="529.7" y2="272.5"/>
	</g>
	<g transform="translate(471.75,453)">
		<text transform="matrix(1 0 0 1 -77.0547 -35.8232)" class="st1 st2 st3">Agresivo</text>
	</g>
	<g transform="translate(587.25,453)">
		<text transform="matrix(1 0 0 1 -74.0547 -35.8232)" class="st1 st2 st3">Normal</text>
	</g>
	<g transform="translate(529.5001,467)">
		<text transform="matrix(1 0 0 1 -106.5547 -34.8232)" class="st1 st2 st4">Estilo de condución</text>
	</g>
	<g>
		<line class="st0" x1="356.4" y1="403.2" x2="356.4" y2="270.2"/>
		<line class="st0" x1="587.4" y1="403.2" x2="587.4" y2="270.2"/>
		<line class="st0" x1="356.4" y1="399.8" x2="358.8" y2="399.8"/>
		<line class="st0" x1="356.4" y1="378.1" x2="358.8" y2="378.1"/>
		<line class="st0" x1="356.4" y1="356.3" x2="358.8" y2="356.3"/>
		<line class="st0" x1="356.4" y1="334.6" x2="358.8" y2="334.6"/>
		<line class="st0" x1="356.4" y1="312.9" x2="358.8" y2="312.9"/>
		<line class="st0" x1="356.4" y1="291.1" x2="358.8" y2="291.1"/>
		<line class="st0" x1="587.4" y1="399.8" x2="585.1" y2="399.8"/>
		<line class="st0" x1="587.4" y1="378.1" x2="585.1" y2="378.1"/>
		<line class="st0" x1="587.4" y1="356.3" x2="585.1" y2="356.3"/>
		<line class="st0" x1="587.4" y1="334.6" x2="585.1" y2="334.6"/>
		<line class="st0" x1="587.4" y1="312.9" x2="585.1" y2="312.9"/>
		<line class="st0" x1="587.4" y1="291.1" x2="585.1" y2="291.1"/>
	</g>
	<g transform="translate(410,445.6389)">
		<text transform="matrix(1 0 0 1 -69.5547 -42.3232)" class="st1 st2 st3">15</text>
	</g>
	<g transform="translate(410,423.8998)">
		<text transform="matrix(1 0 0 1 -69.5547 -42.3233)" class="st1 st2 st3">20</text>
	</g>
	<g transform="translate(410,402.1607)">
		<text transform="matrix(1 0 0 1 -69.5547 -42.3232)" class="st1 st2 st3">25</text>
	</g>
	<g transform="translate(410,380.4217)">
		<text transform="matrix(1 0 0 1 -69.5547 -42.3232)" class="st1 st2 st3">30</text>
	</g>
	<g transform="translate(410,358.6826)">
		<text transform="matrix(1 0 0 1 -69.5547 -42.3232)" class="st1 st2 st3">35</text>
	</g>
	<g transform="translate(410,336.9435)">
		<text transform="matrix(1 0 0 1 -69.5547 -42.3233)" class="st1 st2 st3">40</text>
	</g>
	<g transform="translate(395,382.4999) rotate(-90)">
		<text transform="matrix(1 0 0 1 -0.1768 -60.5547)" class="st1 st2 st4">VA 95 PERCENTIL</text>
	</g>
	<g transform="translate(529.5005,313.25)">
		<text transform="matrix(1 0 0 1 -123.5547 -48.8232)" class="st5 st4">VA95, pvalue = 0.0030131</text>
	</g>
	<g>
		<line class="st6" x1="414.2" y1="283.5" x2="414.2" y2="276.2"/>
		<line class="st6" x1="529.7" y1="309" x2="529.7" y2="289.5"/>
		<line class="st6" x1="414.2" y1="354.9" x2="414.2" y2="327.6"/>
		<line class="st6" x1="529.7" y1="397.1" x2="529.7" y2="361.2"/>
		<line class="st7" x1="405.5" y1="276.2" x2="422.9" y2="276.2"/>
		<line class="st7" x1="521" y1="289.5" x2="538.4" y2="289.5"/>
		<line class="st7" x1="405.5" y1="354.9" x2="422.9" y2="354.9"/>
		<line class="st7" x1="521" y1="397.1" x2="538.4" y2="397.1"/>
	</g>
	<g>
		<path class="st8" d="M396.9,327.6v-44.1h34.7v44.1H396.9"/>
		<path class="st8" d="M512.4,361.2V309H547v52.2H512.4"/>
		<line class="st9" x1="396.9" y1="308.4" x2="431.5" y2="308.4"/>
		<line class="st9" x1="512.4" y1="334.6" x2="547" y2="334.6"/>
	</g>
	<g>
		<path class="st10" d="M42.4,640.2h231v-134h-231V640.2z"/>
	</g>
	<g>
		<line class="st0" x1="42.4" y1="640.2" x2="273.4" y2="640.2"/>
		<line class="st0" x1="42.4" y1="506.2" x2="273.4" y2="506.2"/>
		<line class="st0" x1="100.2" y1="640.2" x2="100.2" y2="637.9"/>
		<line class="st0" x1="215.7" y1="640.2" x2="215.7" y2="637.9"/>
		<line class="st0" x1="100.2" y1="506.2" x2="100.2" y2="508.5"/>
		<line class="st0" x1="215.7" y1="506.2" x2="215.7" y2="508.5"/>
	</g>
	<g transform="translate(157.75,690)">
		<text transform="matrix(1 0 0 1 -77.0547 -35.8232)" class="st1 st2 st3">Agresivo</text>
	</g>
	<g transform="translate(273.25,690)">
		<text transform="matrix(1 0 0 1 -74.0547 -35.8232)" class="st1 st2 st3">Normal</text>
	</g>
	<g transform="translate(215.5001,703)">
		<text transform="matrix(1 0 0 1 -106.5547 -34.8232)" class="st1 st2 st4">Estilo de condución</text>
	</g>
	<g>
		<line class="st0" x1="42.4" y1="640.2" x2="42.4" y2="506.2"/>
		<line class="st0" x1="273.4" y1="640.2" x2="273.4" y2="506.2"/>
		<line class="st0" x1="42.4" y1="634.1" x2="44.8" y2="634.1"/>
		<line class="st0" x1="42.4" y1="600.9" x2="44.8" y2="600.9"/>
		<line class="st0" x1="42.4" y1="567.6" x2="44.8" y2="567.6"/>
		<line class="st0" x1="42.4" y1="534.4" x2="44.8" y2="534.4"/>
		<line class="st0" x1="273.4" y1="634.1" x2="271.1" y2="634.1"/>
		<line class="st0" x1="273.4" y1="600.9" x2="271.1" y2="600.9"/>
		<line class="st0" x1="273.4" y1="567.6" x2="271.1" y2="567.6"/>
		<line class="st0" x1="273.4" y1="534.4" x2="271.1" y2="534.4"/>
	</g>
	<g transform="translate(96,679.8923)">
		<text transform="matrix(1 0 0 1 -74.5547 -42.3232)" class="st1 st2 st3">400</text>
	</g>
	<g transform="translate(96,646.6818)">
		<text transform="matrix(1 0 0 1 -74.5547 -42.3232)" class="st1 st2 st3">600</text>
	</g>
	<g transform="translate(96,613.4711)">
		<text transform="matrix(1 0 0 1 -74.5547 -42.3232)" class="st1 st2 st3">800</text>
	</g>
	<g transform="translate(96,580.2606)">
		<text transform="matrix(1 0 0 1 -80.5547 -42.3232)" class="st1 st2 st3">1000</text>
	</g>
	<g transform="translate(70,618.9999) rotate(-90)">
		<text transform="matrix(1 0 0 1 21.3231 -60.5547)" class="st1 st2 st4">RPM STD</text>
	</g>
	<g transform="translate(215.5002,549.2293)">
		<text transform="matrix(1 0 0 1 -133.0547 -48.8232)" class="st5 st4">RPM std, pvalue = 0.0020174</text>
	</g>
	<g>
		<line class="st6" x1="100.2" y1="549.4" x2="100.2" y2="531"/>
		<line class="st6" x1="215.7" y1="561.8" x2="215.7" y2="548.6"/>
		<line class="st6" x1="100.2" y1="585.6" x2="100.2" y2="566.9"/>
		<line class="st6" x1="215.7" y1="634.1" x2="215.7" y2="593.6"/>
		<line class="st7" x1="91.5" y1="531" x2="108.9" y2="531"/>
		<line class="st7" x1="207" y1="548.6" x2="224.4" y2="548.6"/>
		<line class="st7" x1="91.5" y1="585.6" x2="108.9" y2="585.6"/>
		<line class="st7" x1="207" y1="634.1" x2="224.4" y2="634.1"/>
	</g>
	<g>
		<path class="st8" d="M82.9,566.9v-17.5h34.6v17.5H82.9"/>
		<path class="st8" d="M198.4,593.6v-31.8H233v31.8H198.4"/>
		<line class="st9" x1="82.9" y1="563.4" x2="117.5" y2="563.4"/>
		<line class="st9" x1="198.4" y1="578.6" x2="233" y2="578.6"/>
		<path class="st11" d="M100.2,509.3v6 M97.2,512.3h6"/>
	</g>
	<g>
		<path class="st10" d="M358.4,640.2h229v-137h-229V640.2z"/>
	</g>
	<g>
		<line class="st0" x1="358.4" y1="640.2" x2="587.4" y2="640.2"/>
		<line class="st0" x1="358.4" y1="503.2" x2="587.4" y2="503.2"/>
		<line class="st0" x1="415.7" y1="640.2" x2="415.7" y2="637.9"/>
		<line class="st0" x1="530.2" y1="640.2" x2="530.2" y2="637.9"/>
		<line class="st0" x1="415.7" y1="503.2" x2="415.7" y2="505.5"/>
		<line class="st0" x1="530.2" y1="503.2" x2="530.2" y2="505.5"/>
	</g>
	<g transform="translate(473.25,690)">
		<text transform="matrix(1 0 0 1 -77.0547 -35.8232)" class="st1 st2 st3">Agresivo</text>
	</g>
	<g transform="translate(587.75,690)">
		<text transform="matrix(1 0 0 1 -74.0547 -35.8232)" class="st1 st2 st3">Normal</text>
	</g>
	<g transform="translate(530.5001,703)">
		<text transform="matrix(1 0 0 1 -106.5547 -34.8232)" class="st1 st2 st4">Estilo de condución</text>
	</g>
	<g>
		<line class="st0" x1="358.4" y1="640.2" x2="358.4" y2="503.2"/>
		<line class="st0" x1="587.4" y1="640.2" x2="587.4" y2="503.2"/>
		<line class="st0" x1="358.4" y1="616.4" x2="360.7" y2="616.4"/>
		<line class="st0" x1="358.4" y1="579.9" x2="360.7" y2="579.9"/>
		<line class="st0" x1="358.4" y1="543.5" x2="360.7" y2="543.5"/>
		<line class="st0" x1="358.4" y1="507" x2="360.7" y2="507"/>
		<line class="st0" x1="587.4" y1="616.4" x2="585.2" y2="616.4"/>
		<line class="st0" x1="587.4" y1="579.9" x2="585.2" y2="579.9"/>
		<line class="st0" x1="587.4" y1="543.5" x2="585.2" y2="543.5"/>
		<line class="st0" x1="587.4" y1="507" x2="585.2" y2="507"/>
	</g>
	<g transform="translate(412,662.1941)">
		<text transform="matrix(1 0 0 1 -63.5547 -42.3232)" class="st1 st2 st3">1</text>
	</g>
	<g transform="translate(412,625.7489)">
		<text transform="matrix(1 0 0 1 -71.5547 -42.3232)" class="st1 st2 st3">1.5</text>
	</g>
	<g transform="translate(412,589.3036)">
		<text transform="matrix(1 0 0 1 -63.5547 -42.3232)" class="st1 st2 st3">2</text>
	</g>
	<g transform="translate(412,552.8585)">
		<text transform="matrix(1 0 0 1 -71.5547 -42.3232)" class="st1 st2 st3">2.5</text>
	</g>
	<g transform="translate(395,617.4999) rotate(-90)">
		<text transform="matrix(1 0 0 1 -4.6769 -60.5547)" class="st1 st2 st4">ACELERACION STD</text>
	</g>
	<g transform="translate(530.5005,546.2298)">
		<text transform="matrix(1 0 0 1 -145.0547 -48.8232)" class="st5 st4">Std aceleracion, pvalue = 0.10211</text>
	</g>
	<g>
		<line class="st6" x1="415.7" y1="573.6" x2="415.7" y2="570.5"/>
		<line class="st6" x1="530.2" y1="589.7" x2="530.2" y2="572.6"/>
		<line class="st6" x1="415.7" y1="626.3" x2="415.7" y2="614.3"/>
		<line class="st6" x1="530.2" y1="633.9" x2="530.2" y2="624.6"/>
		<line class="st7" x1="407.1" y1="570.5" x2="424.3" y2="570.5"/>
		<line class="st7" x1="521.6" y1="572.6" x2="538.8" y2="572.6"/>
		<line class="st7" x1="407.1" y1="626.3" x2="424.3" y2="626.3"/>
		<line class="st7" x1="521.6" y1="633.9" x2="538.8" y2="633.9"/>
	</g>
	<g>
		<path class="st8" d="M398.5,614.3v-40.7h34.3v40.7H398.5"/>
		<path class="st8" d="M513,624.6v-34.9h34.3v34.9H513"/>
		<line class="st9" x1="398.5" y1="608.2" x2="432.9" y2="608.2"/>
		<line class="st9" x1="513" y1="610.2" x2="547.4" y2="610.2"/>
		<path class="st11" d="M415.7,506.4v6 M412.7,509.4h6"/>
	</g>
</g>
</svg>
