<?xml version="1.0" encoding="utf-8"?>
<!-- Generator: Adobe Illustrator 27.6.1, SVG Export Plug-In . SVG Version: 6.00 Build 0)  -->
<svg version="1.1" id="Layer_1" xmlns="http://www.w3.org/2000/svg" xmlns:xlink="http://www.w3.org/1999/xlink" x="0px" y="0px"
	 viewBox="0 0 469.7 392.5" style="enable-background:new 0 0 469.7 392.5;" xml:space="preserve">
<style type="text/css">
	.st0{fill:none;stroke:#262626;stroke-width:0.5;stroke-linecap:square;stroke-linejoin:round;stroke-miterlimit:10;}
	.st1{fill:#262626;}
	.st2{font-family:'Helvetica';}
	.st3{font-size:10px;}
	.st4{font-size:11px;}
	.st5{font-family:'HelveticaNeue-Bold';}
	.st6{fill:#0072BD;}
	.st7{fill:#D95319;}
	.st8{fill:#FFFFFF;}
	.st9{font-size:9px;}
	.st10{fill:none;stroke:#262626;stroke-width:0.5;stroke-miterlimit:10;}
</style>
<g>
	<line class="st0" x1="35.4" y1="358.2" x2="469.4" y2="358.2"/>
	<line class="st0" x1="35.4" y1="15.2" x2="469.4" y2="15.2"/>
	<line class="st0" x1="45.4" y1="358.2" x2="45.4" y2="353.8"/>
	<line class="st0" x1="87.3" y1="358.2" x2="87.3" y2="353.8"/>
	<line class="st0" x1="129.1" y1="358.2" x2="129.1" y2="353.8"/>
	<line class="st0" x1="171" y1="358.2" x2="171" y2="353.8"/>
	<line class="st0" x1="212.9" y1="358.2" x2="212.9" y2="353.8"/>
	<line class="st0" x1="254.8" y1="358.2" x2="254.8" y2="353.8"/>
	<line class="st0" x1="296.6" y1="358.2" x2="296.6" y2="353.8"/>
	<line class="st0" x1="338.5" y1="358.2" x2="338.5" y2="353.8"/>
	<line class="st0" x1="380.4" y1="358.2" x2="380.4" y2="353.8"/>
	<line class="st0" x1="422.3" y1="358.2" x2="422.3" y2="353.8"/>
	<line class="st0" x1="464.1" y1="358.2" x2="464.1" y2="353.8"/>
	<line class="st0" x1="45.4" y1="15.2" x2="45.4" y2="19.5"/>
	<line class="st0" x1="87.3" y1="15.2" x2="87.3" y2="19.5"/>
	<line class="st0" x1="129.1" y1="15.2" x2="129.1" y2="19.5"/>
	<line class="st0" x1="171" y1="15.2" x2="171" y2="19.5"/>
	<line class="st0" x1="212.9" y1="15.2" x2="212.9" y2="19.5"/>
	<line class="st0" x1="254.8" y1="15.2" x2="254.8" y2="19.5"/>
	<line class="st0" x1="296.6" y1="15.2" x2="296.6" y2="19.5"/>
	<line class="st0" x1="338.5" y1="15.2" x2="338.5" y2="19.5"/>
	<line class="st0" x1="380.4" y1="15.2" x2="380.4" y2="19.5"/>
	<line class="st0" x1="422.3" y1="15.2" x2="422.3" y2="19.5"/>
	<line class="st0" x1="464.1" y1="15.2" x2="464.1" y2="19.5"/>
</g>
<g transform="translate(82.957,378)">
	<text transform="matrix(1 0 0 1 -45.5547 -5.8232)" class="st1 st2 st3">-35</text>
</g>
<g transform="translate(124.8299,378)">
	<text transform="matrix(1 0 0 1 -45.5547 -5.8232)" class="st1 st2 st3">-30</text>
</g>
<g transform="translate(166.7029,378)">
	<text transform="matrix(1 0 0 1 -45.5547 -5.8232)" class="st1 st2 st3">-25</text>
</g>
<g transform="translate(208.5758,378)">
	<text transform="matrix(1 0 0 1 -45.5547 -5.8232)" class="st1 st2 st3">-20</text>
</g>
<g transform="translate(250.4487,378)">
	<text transform="matrix(1 0 0 1 -45.5547 -5.8232)" class="st1 st2 st3">-15</text>
</g>
<g transform="translate(292.3217,378)">
	<text transform="matrix(1 0 0 1 -45.5547 -5.8232)" class="st1 st2 st3">-10</text>
</g>
<g transform="translate(334.1946,378)">
	<text transform="matrix(1 0 0 1 -42.5547 -5.8232)" class="st1 st2 st3">-5</text>
</g>
<g transform="translate(376.0675,378)">
	<text transform="matrix(1 0 0 1 -40.5547 -5.8232)" class="st1 st2 st3">0</text>
</g>
<g transform="translate(417.9404,378)">
	<text transform="matrix(1 0 0 1 -40.5547 -5.8232)" class="st1 st2 st3">5</text>
</g>
<g transform="translate(459.8134,378)">
	<text transform="matrix(1 0 0 1 -43.5547 -5.8232)" class="st1 st2 st3">10</text>
</g>
<g transform="translate(501.6863,378)">
	<text transform="matrix(1 0 0 1 -43.5547 -5.8232)" class="st1 st2 st3">15</text>
</g>
<g transform="translate(290.0002,392)">
	<text transform="matrix(1 0 0 1 -71.5547 -4.8232)" class="st1 st2 st4">Component 1</text>
</g>
<g>
	<line class="st0" x1="35.4" y1="358.2" x2="35.4" y2="15.2"/>
	<line class="st0" x1="469.4" y1="358.2" x2="469.4" y2="15.2"/>
	<line class="st0" x1="35.4" y1="358.2" x2="39.8" y2="358.2"/>
	<line class="st0" x1="35.4" y1="301" x2="39.8" y2="301"/>
	<line class="st0" x1="35.4" y1="243.8" x2="39.8" y2="243.8"/>
	<line class="st0" x1="35.4" y1="186.7" x2="39.8" y2="186.7"/>
	<line class="st0" x1="35.4" y1="129.5" x2="39.8" y2="129.5"/>
	<line class="st0" x1="35.4" y1="72.3" x2="39.8" y2="72.3"/>
	<line class="st0" x1="35.4" y1="15.2" x2="39.8" y2="15.2"/>
	<line class="st0" x1="469.4" y1="358.2" x2="465.1" y2="358.2"/>
	<line class="st0" x1="469.4" y1="301" x2="465.1" y2="301"/>
	<line class="st0" x1="469.4" y1="243.8" x2="465.1" y2="243.8"/>
	<line class="st0" x1="469.4" y1="186.7" x2="465.1" y2="186.7"/>
	<line class="st0" x1="469.4" y1="129.5" x2="465.1" y2="129.5"/>
	<line class="st0" x1="469.4" y1="72.3" x2="465.1" y2="72.3"/>
	<line class="st0" x1="469.4" y1="15.2" x2="465.1" y2="15.2"/>
</g>
<g transform="translate(69,374)">
	<text transform="matrix(1 0 0 1 -53.5547 -12.3232)" class="st1 st2 st3">-15</text>
</g>
<g transform="translate(69,316.8333)">
	<text transform="matrix(1 0 0 1 -53.5547 -12.3232)" class="st1 st2 st3">-10</text>
</g>
<g transform="translate(69,259.6667)">
	<text transform="matrix(1 0 0 1 -47.5547 -12.3232)" class="st1 st2 st3">-5</text>
</g>
<g transform="translate(69,202.5)">
	<text transform="matrix(1 0 0 1 -43.5547 -12.3232)" class="st1 st2 st3">0</text>
</g>
<g transform="translate(69,145.3333)">
	<text transform="matrix(1 0 0 1 -43.5547 -12.3232)" class="st1 st2 st3">5</text>
</g>
<g transform="translate(69,88.1667)">
	<text transform="matrix(1 0 0 1 -49.5547 -12.3233)" class="st1 st2 st3">10</text>
</g>
<g transform="translate(69,31)">
	<text transform="matrix(1 0 0 1 -49.5547 -12.3232)" class="st1 st2 st3">15</text>
</g>
<g transform="translate(50,202.4998) rotate(-90)">
	<text transform="matrix(1 0 0 1 -18.177 -40.5547)" class="st1 st2 st4">Component 2</text>
</g>
<g transform="translate(290.0003,28.25)">
	<text transform="matrix(1 0 0 1 -87.5547 -18.8232)" class="st5 st4">tsne - Visualisation</text>
</g>
<g transform="translate(360.9283,305.6622)">
	<circle class="st6" cx="-37.6" cy="-15.8" r="2.5"/>
</g>
<g transform="translate(381.0817,280.9781)">
	<circle class="st6" cx="-37.6" cy="-15.8" r="2.5"/>
</g>
<g transform="translate(486.0635,215.2474)">
	<circle class="st6" cx="-37.6" cy="-15.8" r="2.5"/>
</g>
<g transform="translate(365.6942,254.6918)">
	<circle class="st6" cx="-37.6" cy="-15.8" r="2.5"/>
</g>
<g transform="translate(482.1913,262.1169)">
	<circle class="st6" cx="-37.6" cy="-15.8" r="2.5"/>
</g>
<g transform="translate(414.5035,186.0166)">
	<circle class="st6" cx="-37.6" cy="-15.8" r="2.5"/>
</g>
<g transform="translate(465.272,218.0806)">
	<circle class="st6" cx="-37.6" cy="-15.8" r="2.5"/>
</g>
<g transform="translate(336.9377,206.2332)">
	<circle class="st6" cx="-37.6" cy="-15.8" r="2.5"/>
</g>
<g transform="translate(436.9167,276.7638)">
	<circle class="st6" cx="-37.6" cy="-15.8" r="2.5"/>
</g>
<g transform="translate(405.4059,129.6193)">
	<circle class="st6" cx="-37.6" cy="-15.8" r="2.5"/>
</g>
<g transform="translate(420.6326,252.5474)">
	<circle class="st6" cx="-37.6" cy="-15.8" r="2.5"/>
</g>
<g transform="translate(332.7565,239.2053)">
	<circle class="st6" cx="-37.6" cy="-15.8" r="2.5"/>
</g>
<g transform="translate(338.5291,123.2117)">
	<circle class="st6" cx="-37.6" cy="-15.8" r="2.5"/>
</g>
<g transform="translate(381.641,164.2131)">
	<circle class="st6" cx="-37.6" cy="-15.8" r="2.5"/>
</g>
<g transform="translate(412.5108,155.5657)">
	<circle class="st6" cx="-37.6" cy="-15.8" r="2.5"/>
</g>
<g transform="translate(305.6416,159.7984)">
	<circle class="st7" cx="-37.6" cy="-15.8" r="2.5"/>
</g>
<g transform="translate(238.1401,190.8388)">
	<circle class="st7" cx="-37.6" cy="-15.8" r="2.5"/>
</g>
<g transform="translate(160.9221,256.1448)">
	<circle class="st7" cx="-37.6" cy="-15.8" r="2.5"/>
</g>
<g transform="translate(218.3764,241.9683)">
	<circle class="st7" cx="-37.6" cy="-15.8" r="2.5"/>
</g>
<g transform="translate(264.9854,275.1657)">
	<circle class="st7" cx="-37.6" cy="-15.8" r="2.5"/>
</g>
<g transform="translate(280.5955,251.1823)">
	<circle class="st7" cx="-37.6" cy="-15.8" r="2.5"/>
</g>
<g transform="translate(149.0266,117.0671)">
	<circle class="st7" cx="-37.6" cy="-15.8" r="2.5"/>
</g>
<g transform="translate(264.0313,124.4122)">
	<circle class="st7" cx="-37.6" cy="-15.8" r="2.5"/>
</g>
<g transform="translate(319.0891,236.5128)">
	<circle class="st7" cx="-37.6" cy="-15.8" r="2.5"/>
</g>
<g transform="translate(317.0132,116.6222)">
	<circle class="st7" cx="-37.6" cy="-15.8" r="2.5"/>
</g>
<g transform="translate(140.0222,329.7698)">
	<circle class="st7" cx="-37.6" cy="-15.8" r="2.5"/>
</g>
<g transform="translate(316.0935,260.5781)">
	<circle class="st7" cx="-37.6" cy="-15.8" r="2.5"/>
</g>
<g transform="translate(294.0219,160.8653)">
	<circle class="st7" cx="-37.6" cy="-15.8" r="2.5"/>
</g>
<g transform="translate(156.1842,175.9003)">
	<circle class="st7" cx="-37.6" cy="-15.8" r="2.5"/>
</g>
<g transform="translate(316.5303,79.5824)">
	<circle class="st7" cx="-37.6" cy="-15.8" r="2.5"/>
</g>
<g transform="translate(141.6693,279.7986)">
	<circle class="st7" cx="-37.6" cy="-15.8" r="2.5"/>
</g>
<g transform="translate(142.1039,220.2974)">
	<circle class="st7" cx="-37.6" cy="-15.8" r="2.5"/>
</g>
<g transform="translate(253.455,194.2565)">
	<circle class="st7" cx="-37.6" cy="-15.8" r="2.5"/>
</g>
<g transform="translate(285.8943,216.2227)">
	<circle class="st7" cx="-37.6" cy="-15.8" r="2.5"/>
</g>
<g transform="translate(257.8747,146.5696)">
	<circle class="st7" cx="-37.6" cy="-15.8" r="2.5"/>
</g>
<g transform="translate(100.2831,317.5436)">
	<circle class="st7" cx="-37.6" cy="-15.8" r="2.5"/>
</g>
<g transform="translate(293.1951,135.7047)">
	<circle class="st7" cx="-37.6" cy="-15.8" r="2.5"/>
</g>
<g transform="translate(347.3041,221.0135)">
	<circle class="st7" cx="-37.6" cy="-15.8" r="2.5"/>
</g>
<g transform="translate(232.6831,279.5964)">
	<circle class="st7" cx="-37.6" cy="-15.8" r="2.5"/>
</g>
<g transform="translate(218.7031,224.5789)">
	<circle class="st7" cx="-37.6" cy="-15.8" r="2.5"/>
</g>
<g transform="translate(297.5887,93.6701)">
	<circle class="st7" cx="-37.6" cy="-15.8" r="2.5"/>
</g>
<g transform="translate(168.4212,218.6217)">
	<circle class="st7" cx="-37.6" cy="-15.8" r="2.5"/>
</g>
<g transform="translate(117.9469,214.4942)">
	<circle class="st7" cx="-37.6" cy="-15.8" r="2.5"/>
</g>
<g transform="translate(313.1435,214.147)">
	<circle class="st7" cx="-37.6" cy="-15.8" r="2.5"/>
</g>
<g transform="translate(127.2008,266.7697)">
	<circle class="st7" cx="-37.6" cy="-15.8" r="2.5"/>
</g>
<g transform="translate(282.7252,231.2539)">
	<circle class="st7" cx="-37.6" cy="-15.8" r="2.5"/>
</g>
<g transform="translate(93.9365,244.9711)">
	<circle class="st7" cx="-37.6" cy="-15.8" r="2.5"/>
</g>
<g>
	<path class="st8" d="M127.4,48.2v-27h-76v27H127.4z"/>
</g>
<g transform="translate(126,44.6415)">
	<text transform="matrix(1 0 0 1 -37.5547 -12.3233)" class="st2 st9">Agresivo</text>
</g>
<g transform="translate(108,44.6415)">
	<circle class="st6" cx="-37.6" cy="-15.8" r="2.5"/>
</g>
<g transform="translate(126,56.3585)">
	<text transform="matrix(1 0 0 1 -37.5547 -12.3232)" class="st2 st9">Normal</text>
</g>
<g transform="translate(108,56.3585)">
	<circle class="st7" cx="-37.6" cy="-15.8" r="2.5"/>
</g>
<g>
	<path class="st10" d="M51.4,48.2v-27h76v27H51.4z"/>
</g>
</svg>
